<svg id="Group_7225" data-name="Group 7225" xmlns="http://www.w3.org/2000/svg" width="29" height="29" viewBox="0 0 29 29">
  <path id="Path_3544" data-name="Path 3544" d="M-5.4-4.219v.948H-8.537v-.948h1.066V-10.1H-8.537v-.927H-6.4v6.8Zm2.179-3.09V-8.685h1.375v1.375Zm0,4.038v-1.37h1.375v1.37ZM3.7-4.219v.948H.565v-.948H1.631V-10.1H.565v-.927H2.7v6.8Z" transform="translate(16.537 21.94)" fill="#666"/>
  <path id="Path_3553" data-name="Path 3553" d="M20,29H9a9.01,9.01,0,0,1-9-9V9A9.01,9.01,0,0,1,9,0H20a9.01,9.01,0,0,1,9,9V20A9.01,9.01,0,0,1,20,29ZM9,3A6.007,6.007,0,0,0,3,9V20a6.007,6.007,0,0,0,6,6H20a6.007,6.007,0,0,0,6-6V9a6.007,6.007,0,0,0-6-6Z" transform="translate(0 0)" fill="#666"/>
</svg>
