<svg id="Group_7226" data-name="Group 7226" xmlns="http://www.w3.org/2000/svg" width="29" height="29" viewBox="0 0 29 29">
  <path id="Path_3545" data-name="Path 3545" d="M-10.163-5.41v.793h-2.625V-5.41h.892v-4.918h-.892V-11.1H-11V-5.41ZM-4.56-9.2h-.785a1.633,1.633,0,0,0-.377-.892,1,1,0,0,0-.791-.362,1.062,1.062,0,0,0-.957.64,3.875,3.875,0,0,0-.366,1.778,2.075,2.075,0,0,1,1.53-.711,1.77,1.77,0,0,1,.886.233,1.723,1.723,0,0,1,.662.683,2.184,2.184,0,0,1,.25,1.075,2.741,2.741,0,0,1-.228,1.132,1.9,1.9,0,0,1-.67.813,1.816,1.816,0,0,1-1.05.3,1.96,1.96,0,0,1-1.157-.353A2.308,2.308,0,0,1-8.4-5.949a5.05,5.05,0,0,1-.287-1.828,4.664,4.664,0,0,1,.586-2.53,1.9,1.9,0,0,1,1.7-.914,1.666,1.666,0,0,1,1.334.565A2.263,2.263,0,0,1-4.56-9.2Zm-1.935,3.91a1.036,1.036,0,0,0,.853-.392,1.521,1.521,0,0,0,.315-.983,1.353,1.353,0,0,0-.287-.888.977.977,0,0,0-.8-.349,1.852,1.852,0,0,0-1.379.858Q-7.577-5.289-6.495-5.289ZM-3.335-8V-9.147h1.151V-8Zm0,3.379V-5.764h1.151v1.147ZM3.083-7.936a4.591,4.591,0,0,1-.591,2.522,1.9,1.9,0,0,1-1.685.905,1.693,1.693,0,0,1-1.33-.547,2.312,2.312,0,0,1-.532-1.483H-.27a1.663,1.663,0,0,0,.384.92.968.968,0,0,0,.746.338,1.107,1.107,0,0,0,1.007-.666A3.683,3.683,0,0,0,2.226-7.7a2.012,2.012,0,0,1-1.517.716,1.746,1.746,0,0,1-.922-.248,1.749,1.749,0,0,1-.649-.707A2.257,2.257,0,0,1-1.1-9,2.651,2.651,0,0,1-.872-10.1,1.933,1.933,0,0,1-.2-10.917a1.806,1.806,0,0,1,1.05-.3,1.918,1.918,0,0,1,1.625.825A4.129,4.129,0,0,1,3.083-7.936ZM.807-7.828a1.822,1.822,0,0,0,1.375-.858,2.817,2.817,0,0,0-.422-1.321,1.033,1.033,0,0,0-.884-.438,1.03,1.03,0,0,0-.834.39,1.5,1.5,0,0,0-.321.989A1.385,1.385,0,0,0,0-8.182.967.967,0,0,0,.807-7.828Z" transform="translate(18.788 22.221)" fill="#666"/>
  <path id="Path_3553" data-name="Path 3553" d="M20,29H9a9.01,9.01,0,0,1-9-9V9A9.01,9.01,0,0,1,9,0H20a9.01,9.01,0,0,1,9,9V20A9.01,9.01,0,0,1,20,29ZM9,3A6.007,6.007,0,0,0,3,9V20a6.007,6.007,0,0,0,6,6H20a6.007,6.007,0,0,0,6-6V9a6.007,6.007,0,0,0-6-6Z" transform="translate(0 0)" fill="#666"/>
</svg>
