<svg id="Group_7224" data-name="Group 7224" xmlns="http://www.w3.org/2000/svg" width="29" height="29" viewBox="0 0 29 29">
  <path id="Path_3542" data-name="Path 3542" d="M-5.209-6.521v.906H-6.4v1.105h.687v.916H-8.2v-.916h.8V-5.615H-9.919a1.9,1.9,0,0,0-.493-.841l3.132-4.7H-6.4v4.64Zm-2.191,0V-9.478L-9.371-6.521ZM-4-7.5V-8.826h1.329V-7.5Zm0,3.9V-4.918h1.329v1.324ZM3.26-9.234a1.7,1.7,0,0,1-.321,1.051,2.054,2.054,0,0,1-.739.632,1.93,1.93,0,0,1,1.068.67A1.954,1.954,0,0,1,3.6-5.7,2.07,2.07,0,0,1,3.228-4.45a2.164,2.164,0,0,1-.958.744,3.315,3.315,0,0,1-1.25.236,2.623,2.623,0,0,1-1.9-.655,2.679,2.679,0,0,1-.677-2.009h.986a1.975,1.975,0,0,0,.468,1.3A1.535,1.535,0,0,0,1.08-4.36a1.5,1.5,0,0,0,1.065-.366,1.236,1.236,0,0,0,.393-.948,1.238,1.238,0,0,0-.458-.983A2.135,2.135,0,0,0,.671-7.048q-.234,0-.334.01V-7.97H.477a4.854,4.854,0,0,0,.884-.07,1.187,1.187,0,0,0,.627-.321,1,1,0,0,0,.256-.749,1.361,1.361,0,0,0-.291-.861,1.051,1.051,0,0,0-.884-.373,1.1,1.1,0,0,0-.919.373A1.936,1.936,0,0,0-.175-8.836H-1.225v-.08a2.35,2.35,0,0,1,.4-1.461,1.875,1.875,0,0,1,.9-.685,3,3,0,0,1,.914-.159,2.333,2.333,0,0,1,1.7.56A1.914,1.914,0,0,1,3.26-9.234Z" transform="translate(17.412 22.138)" fill="#666"/>
  <path id="Path_3553" data-name="Path 3553" d="M20,29H9a9.01,9.01,0,0,1-9-9V9A9.01,9.01,0,0,1,9,0H20a9.01,9.01,0,0,1,9,9V20A9.01,9.01,0,0,1,20,29ZM9,3A6.007,6.007,0,0,0,3,9V20a6.007,6.007,0,0,0,6,6H20a6.007,6.007,0,0,0,6-6V9a6.007,6.007,0,0,0-6-6Z" transform="translate(0 0)" fill="#666"/>
</svg>
