<svg id="Group_7227" data-name="Group 7227" xmlns="http://www.w3.org/2000/svg" width="29" height="29" viewBox="0 0 29 29">
  <g id="Group_7214" data-name="Group 7214">
    <path id="Path_3553" data-name="Path 3553" d="M20,29H9a9.01,9.01,0,0,1-9-9V9A9.01,9.01,0,0,1,9,0H20a9.01,9.01,0,0,1,9,9V20A9.01,9.01,0,0,1,20,29ZM9,3A6.007,6.007,0,0,0,3,9V20a6.007,6.007,0,0,0,6,6H20a6.007,6.007,0,0,0,6-6V9a6.007,6.007,0,0,0-6-6Z" transform="translate(0 0)" fill="#fff"/>
    <path id="Path_3554" data-name="Path 3554" d="M-10.258-7.988a4.519,4.519,0,0,1-.581,2.482,1.866,1.866,0,0,1-1.659.891,1.667,1.667,0,0,1-1.309-.539,2.275,2.275,0,0,1-.524-1.459h.772a1.637,1.637,0,0,0,.378.906.953.953,0,0,0,.734.333,1.09,1.09,0,0,0,.991-.656A3.625,3.625,0,0,0-11.1-7.754a1.98,1.98,0,0,1-1.493.7,1.719,1.719,0,0,1-.908-.244,1.721,1.721,0,0,1-.639-.7,2.222,2.222,0,0,1-.235-1.042,2.609,2.609,0,0,1,.227-1.09,1.9,1.9,0,0,1,.662-.8,1.778,1.778,0,0,1,1.033-.3,1.888,1.888,0,0,1,1.6.812A4.064,4.064,0,0,1-10.258-7.988Zm-2.24.106a1.793,1.793,0,0,0,1.353-.844,2.772,2.772,0,0,0-.416-1.3,1.016,1.016,0,0,0-.87-.431,1.014,1.014,0,0,0-.821.384,1.481,1.481,0,0,0-.316.974,1.364,1.364,0,0,0,.274.87A.952.952,0,0,0-12.5-7.882Zm3.42-.165V-9.18h1.133v1.133Zm0,3.326V-5.849h1.133v1.129Zm5.7-.781v.781H-5.96V-5.5h.878v-4.841H-5.96v-.764H-4.2v5.6ZM2.14-9.231H1.367A1.607,1.607,0,0,0,1-10.109a.984.984,0,0,0-.779-.356,1.045,1.045,0,0,0-.942.63,3.814,3.814,0,0,0-.361,1.75,2.042,2.042,0,0,1,1.506-.7,1.743,1.743,0,0,1,.872.229,1.7,1.7,0,0,1,.651.672A2.149,2.149,0,0,1,2.19-6.825a2.7,2.7,0,0,1-.225,1.114,1.871,1.871,0,0,1-.66.8,1.787,1.787,0,0,1-1.033.3A1.93,1.93,0,0,1-.866-4.963a2.272,2.272,0,0,1-.776-1.069,4.971,4.971,0,0,1-.282-1.8,4.59,4.59,0,0,1,.577-2.49,1.866,1.866,0,0,1,1.672-.9,1.639,1.639,0,0,1,1.313.556A2.227,2.227,0,0,1,2.14-9.231ZM.235-5.383a1.02,1.02,0,0,0,.84-.386,1.5,1.5,0,0,0,.31-.967A1.332,1.332,0,0,0,1.1-7.61a.962.962,0,0,0-.787-.344,1.822,1.822,0,0,0-1.358.844Q-.83-5.383.235-5.383Z" transform="translate(20.378 22.82)" fill="#fff"/>
  </g>
</svg>
