<svg xmlns="http://www.w3.org/2000/svg" width="17.245" height="18" viewBox="0 0 17.245 18">
  <g id="accept" transform="translate(0 0)">
    <path id="Path_3634" data-name="Path 3634" d="M12.866,8.215h.1q.252,0,.5.032V2.124A2.126,2.126,0,0,0,11.339,0H2.124A2.126,2.126,0,0,0,0,2.124V14.34a2.126,2.126,0,0,0,2.124,2.124H8.276a5.4,5.4,0,0,1,4.59-8.248ZM7.617,3.468h3.147a.527.527,0,1,1,0,1.055H7.617a.527.527,0,0,1,0-1.055Zm0,2.109h3.147a.527.527,0,1,1,0,1.055H7.617a.527.527,0,0,1,0-1.055ZM5.846,13H2.7a.527.527,0,0,1,0-1.055H5.846a.527.527,0,1,1,0,1.055Zm0-2.145H2.7A.527.527,0,1,1,2.7,9.8H5.846a.527.527,0,1,1,0,1.055Zm0-2.109H2.7a.527.527,0,0,1,0-1.055H5.846a.527.527,0,0,1,0,1.055Zm0-2.109H2.7a.527.527,0,0,1,0-1.055H5.846a.527.527,0,1,1,0,1.055Zm0-2.109H2.7a.527.527,0,0,1,0-1.055H5.846a.527.527,0,1,1,0,1.055ZM7.09,8.214a.527.527,0,0,1,.527-.527H9.133a.527.527,0,0,1,0,1.055H7.617a.527.527,0,0,1-.527-.527Zm0,0" fill="#fff"/>
    <path id="Path_3635" data-name="Path 3635" d="M248.889,263.989a4.351,4.351,0,0,0-3.044-1.309h-.079a4.381,4.381,0,1,0,3.123,1.31Zm-1.251,2.36-1.672,2.085a.527.527,0,0,1-.721.1l-1.247-.9a.527.527,0,0,1,.619-.854l.841.609,1.358-1.693a.527.527,0,1,1,.823.66Zm0,0" transform="translate(-232.9 -253.444)" fill="#fff"/>
  </g>
</svg>
