<svg id="Group_1" data-name="Group 1" xmlns="http://www.w3.org/2000/svg" width="154.824" height="39.015" viewBox="0 0 154.824 39.015">
  <path id="Path_1" data-name="Path 1" d="M1476.6,329.8c.045.215.1.408.159.6.023-.113.057-.227.079-.34A1.805,1.805,0,0,1,1476.6,329.8Z" transform="translate(-1380.927 -298.921)" fill="#fff"/>
  <path id="Path_2" data-name="Path 2" d="M781.243,117.238a7.6,7.6,0,0,1-2.391-.374,4.459,4.459,0,0,1-2.006-1.405,7.406,7.406,0,0,1-1.36-2.878A18.99,18.99,0,0,1,775,107.81a29.848,29.848,0,0,1,.249-3.819,16.759,16.759,0,0,1,.839-3.637,7.839,7.839,0,0,1,1.609-2.742,3.285,3.285,0,0,1,2.527-1.088,2.749,2.749,0,0,1,2.878,2.969,4.987,4.987,0,0,1-.249,1.507,2.394,2.394,0,0,1-.68,1.19,2.4,2.4,0,0,0,2.006,1.133,1.731,1.731,0,0,0,1.609-.9,5.005,5.005,0,0,0,.521-2.47,6.165,6.165,0,0,0-1.768-4.646,6.985,6.985,0,0,0-5.077-1.711,8.267,8.267,0,0,0-5.133,1.5,10.58,10.58,0,0,0-3.128,3.751,16.352,16.352,0,0,0-1.552,4.839,30.337,30.337,0,0,0-.408,4.7,21.982,21.982,0,0,0,.363,4.17h0c-.839,3.128-2.04,4.68-3.615,4.68a1.72,1.72,0,0,1-1.36-.567,3.837,3.837,0,0,1-.737-1.36,7.065,7.065,0,0,1-.295-1.609c-.034-.544-.057-1-.057-1.36V93.872H758.1v17.666a10.111,10.111,0,0,1-2.04,4.249,3.83,3.83,0,0,1-2.8,1.473,1.958,1.958,0,0,1-1.439-.51,3,3,0,0,1-.759-1.269,6.751,6.751,0,0,1-.295-1.6c-.034-.567-.057-1.054-.057-1.5V95.821H754.9v-1.96h-4.181V85.6l-5.439.759v7.5h-1.847v1.96h1.847v15.49c-.51.4-1.031.827-1.575,1.28a18.025,18.025,0,0,1-1.734,1.28,25.7,25.7,0,0,0-.249-3.773c-.159-1.144-.419-2.459-.759-3.966s-.793-3.343-1.36-5.519-1.281-4.986-2.142-8.419l-5.484,1.088a37.673,37.673,0,0,1-1.79,8.023q-1.36,3.994-2.776,8.068a3.5,3.5,0,0,0-1.382,1.5,5.064,5.064,0,0,0-.567,2.47,10.625,10.625,0,0,0,.125,1.564q-1.122,2.346-2.788,2.346a1.72,1.72,0,0,1-1.36-.567,3.838,3.838,0,0,1-.736-1.36,7.059,7.059,0,0,1-.295-1.609c-.034-.544-.057-1-.057-1.36V93.872h-5.439v17.451a7.4,7.4,0,0,1-.385,2.5,6.331,6.331,0,0,1-.974,1.847,4.253,4.253,0,0,1-1.36,1.167,3.217,3.217,0,0,1-1.518.408,2.914,2.914,0,0,1-2.334-1.11,6.014,6.014,0,0,1-.929-3.773V93.872h-5.439v7.49a9.559,9.559,0,0,1-3.966.827h-.329a17.824,17.824,0,0,0-.839-3.366,8.992,8.992,0,0,0-1.552-2.742,6.64,6.64,0,0,0-2.5-1.824,9.31,9.31,0,0,0-3.637-.657,8.388,8.388,0,0,0-5.077,1.473,11.241,11.241,0,0,0-3.263,3.694,16.533,16.533,0,0,0-1.734,4.9,26.051,26.051,0,0,0-.521,5.054,21.888,21.888,0,0,0,.261,3.49,10.448,10.448,0,0,1-2.958,3.6,8.733,8.733,0,0,1-7.332,1.065,4.47,4.47,0,0,1-2.04-1.382,7.286,7.286,0,0,1-1.382-2.788,16.946,16.946,0,0,1-.521-4.669,32.064,32.064,0,0,1,.249-3.989,16.435,16.435,0,0,1,.839-3.683,8.339,8.339,0,0,1,1.575-2.742,3.169,3.169,0,0,1,2.448-1.088,2.945,2.945,0,0,1,2.2.8,2.849,2.849,0,0,1,.793,2.051,5.422,5.422,0,0,1-.249,1.586,2.425,2.425,0,0,1-.68,1.212,2.4,2.4,0,0,0,2.006,1.133,1.72,1.72,0,0,0,1.609-.929,4.637,4.637,0,0,0,.521-2.278,6.3,6.3,0,0,0-1.79-4.861,7.455,7.455,0,0,0-5.213-1.654,8.031,8.031,0,0,0-5.054,1.518,10.8,10.8,0,0,0-3.071,3.773,16.666,16.666,0,0,0-1.518,4.9,32.274,32.274,0,0,0-.408,4.918,20.384,20.384,0,0,0,.34,3.9q-1.258,4.64-3.6,4.635a1.72,1.72,0,0,1-1.36-.567,3.84,3.84,0,0,1-.736-1.36,7.065,7.065,0,0,1-.295-1.609c-.034-.544-.057-1-.057-1.36V93.872h-5.439v2.561a4.435,4.435,0,0,0-.974-1.36,4.985,4.985,0,0,0-1.281-.884,5.736,5.736,0,0,0-1.416-.453,8.023,8.023,0,0,0-6.108,1.337,11.9,11.9,0,0,0-3.207,3.694,17.321,17.321,0,0,0-1.824,4.952,25.015,25.015,0,0,0-.567,5.213,17.564,17.564,0,0,0,.839,5.79,11.572,11.572,0,0,0,2.176,3.864,7.719,7.719,0,0,0,2.992,2.142,9.034,9.034,0,0,0,3.286.657,6.717,6.717,0,0,0,4.431-1.518,8.918,8.918,0,0,0,2.64-3.637,10.931,10.931,0,0,0,.6,1.96,5.718,5.718,0,0,0,1.008,1.632,4.924,4.924,0,0,0,1.518,1.144,4.817,4.817,0,0,0,2.142.431,7.767,7.767,0,0,0,1.96-.295,4.922,4.922,0,0,0,2.119-1.337,10.657,10.657,0,0,0,1.96-3.014c.113-.249.227-.51.34-.793a10.565,10.565,0,0,0,1.836,2.652,8.541,8.541,0,0,0,3.32,2.142,11.32,11.32,0,0,0,3.751.657,9.5,9.5,0,0,0,3.864-.816,13.442,13.442,0,0,0,3.422-2.2,16.109,16.109,0,0,0,2.776-3.207c.079-.125.159-.249.238-.385a11.088,11.088,0,0,0,2.312,3.773,8.554,8.554,0,0,0,3.286,2.176,10.748,10.748,0,0,0,3.615.657,7.7,7.7,0,0,0,6.844-3.807c1.632-2.538,2.448-6.028,2.448-10.493,0-.4-.011-.782-.023-1.145s-.023-.725-.023-1.088a18.372,18.372,0,0,0,4.023-1.19v9.292a11.411,11.411,0,0,0,.6,3.943,6.922,6.922,0,0,0,1.632,2.606,5.947,5.947,0,0,0,2.448,1.439,9.95,9.95,0,0,0,2.992.431,5.92,5.92,0,0,0,3.536-1.224,8.4,8.4,0,0,0,2.72-3.887,10.93,10.93,0,0,0,.6,1.9,5.715,5.715,0,0,0,1.009,1.632,4.922,4.922,0,0,0,1.518,1.144,4.818,4.818,0,0,0,2.142.431,7.767,7.767,0,0,0,1.96-.295,4.923,4.923,0,0,0,2.119-1.337,9.076,9.076,0,0,0,1.36-1.847,7.054,7.054,0,0,0,.544.793,6.877,6.877,0,0,0,2.47,1.926,8.894,8.894,0,0,0,3.943.759,9.446,9.446,0,0,0,1.926-.215,10.956,10.956,0,0,0,2.119-.68,8.5,8.5,0,0,0,1.983-1.2,5.969,5.969,0,0,0,1.518-1.824,35.131,35.131,0,0,0,3.229-2.527c.317-.283.646-.578.963-.907a13.62,13.62,0,0,0,.261,2.221,7.666,7.666,0,0,0,.974,2.527,5.461,5.461,0,0,0,1.96,1.87,6.277,6.277,0,0,0,3.207.737,8.271,8.271,0,0,0,2.04-.295,5.666,5.666,0,0,0,2.255-1.337,11.032,11.032,0,0,0,2.2-3.014c.068-.136.136-.272.215-.408a7.449,7.449,0,0,0,.952,2.448,5.778,5.778,0,0,0,1.9,1.87,5.842,5.842,0,0,0,3.094.737,7.768,7.768,0,0,0,1.96-.295,4.922,4.922,0,0,0,2.119-1.337,10.658,10.658,0,0,0,1.96-3.014c.113-.249.238-.521.34-.816a10.156,10.156,0,0,0,1.858,2.686,8.242,8.242,0,0,0,3.4,2.142,12.2,12.2,0,0,0,3.864.623,11.058,11.058,0,0,0,2.663-.329,6.5,6.5,0,0,0,2.334-1.088,5.22,5.22,0,0,0,1.632-2.04,7.642,7.642,0,0,0,.6-3.23A7.719,7.719,0,0,1,781.243,117.238ZM647.632,111.3a6.392,6.392,0,0,1-.431,2.346,6.818,6.818,0,0,1-1.11,1.881,5.653,5.653,0,0,1-1.518,1.258,3.46,3.46,0,0,1-1.654.465,4.083,4.083,0,0,1-3.671-2.017q-1.275-2.023-1.28-6.708a23.784,23.784,0,0,1,.351-4,17.7,17.7,0,0,1,1.11-3.875,8.805,8.805,0,0,1,2.006-2.946,4.213,4.213,0,0,1,2.992-1.167,2.87,2.87,0,0,1,2.04.737,4.751,4.751,0,0,1,1.167,1.609Zm47.615-4.986a19.419,19.419,0,0,1-1.348,8.068,4.443,4.443,0,0,1-4.215,2.856,4.643,4.643,0,0,1-1.836-.385,4.135,4.135,0,0,1-1.677-1.36,7.947,7.947,0,0,1-1.246-2.674,15.975,15.975,0,0,1-.487-4.363,25.565,25.565,0,0,1,.329-4.113,16.461,16.461,0,0,1,1.054-3.841,8.488,8.488,0,0,1,1.892-2.867,3.925,3.925,0,0,1,2.833-1.122,3.661,3.661,0,0,1,2.244.748,5.481,5.481,0,0,1,1.654,2.674,2.489,2.489,0,0,0-1.632.567,2.357,2.357,0,0,0-.544,1.768,2.55,2.55,0,0,0,.68,2.006,3.787,3.787,0,0,0,2.255.7,4.176,4.176,0,0,1,.057.657v.68Zm39.9,10.085a4.069,4.069,0,0,1-2.776.9,3.91,3.91,0,0,1-2.878-1.065,5.514,5.514,0,0,1-1.36-2.357c-.057-.193-.113-.4-.159-.6a1.919,1.919,0,0,0,.249.272,1.73,1.73,0,0,0,1.224.487,1.7,1.7,0,0,0,1.2-.544,2.127,2.127,0,0,0,.544-1.575,2.812,2.812,0,0,0-.351-1.5,2.908,2.908,0,0,0-.839-.9c.544-1.96,1.145-3.864,1.824-5.711A25.251,25.251,0,0,0,733.163,98q.765,3.535,1.337,5.79c.385,1.507.691,2.776.952,3.83s.442,2.006.567,2.878a21.285,21.285,0,0,1,.193,2.992A3.786,3.786,0,0,1,735.146,116.4Z" transform="translate(-632.3 -82.393)" fill="#fff"/>
  <path id="Path_3" data-name="Path 3" d="M1739.93,58.388a3.492,3.492,0,0,0-2.55-1.088,3.35,3.35,0,0,0-2.55,1.088,3.571,3.571,0,0,0-1.031,2.55,3.425,3.425,0,0,0,1.031,2.55,3.461,3.461,0,0,0,2.55,1.031,3.572,3.572,0,0,0,2.55-1.031,3.385,3.385,0,0,0,1.088-2.55A3.492,3.492,0,0,0,1739.93,58.388Z" transform="translate(-1608.982 -57.3)" fill="#fff"/>
</svg>
