<svg xmlns="http://www.w3.org/2000/svg" width="50" height="50" viewBox="0 0 50 50">
  <g id="Group_7453" data-name="Group 7453" transform="translate(-233 -736)">
    <circle id="Ellipse_58" data-name="Ellipse 58" cx="25" cy="25" r="25" transform="translate(233 736)" fill="#36446b" opacity="0.42"/>
    <g id="apple-logo" transform="translate(208.736 748.491)">
      <g id="Group_7811" data-name="Group 7811" transform="translate(38.692 0)">
        <path id="Path_3755" data-name="Path 3755" d="M56.849,117.832a5.6,5.6,0,0,1-1.014-3.279,5.239,5.239,0,0,1,.956-3.044,9.527,9.527,0,0,1,1.676-1.735,7.582,7.582,0,0,0-1.529-1.47,5.376,5.376,0,0,0-3.132-.956,8.3,8.3,0,0,0-2.543.5,7.363,7.363,0,0,1-2.1.5,9.458,9.458,0,0,1-2.029-.441,9.781,9.781,0,0,0-2.6-.441,5.076,5.076,0,0,0-4.175,2.117,8.723,8.723,0,0,0-1.661,5.5,15.073,15.073,0,0,0,2.161,7.4q2.19,3.808,4.425,3.808a5.315,5.315,0,0,0,1.941-.5,5.667,5.667,0,0,1,2.088-.485,6.5,6.5,0,0,1,2.22.47,6.8,6.8,0,0,0,2.058.47q1.882,0,3.778-2.882a14.192,14.192,0,0,0,1.808-3.676A4.472,4.472,0,0,1,56.849,117.832Z" transform="translate(-38.692 -101.821)" fill="#9b9b9b"/>
        <path id="Path_3756" data-name="Path 3756" d="M236.8,4.646a6.035,6.035,0,0,0,1.368-2.029,5.608,5.608,0,0,0,.426-2c0-.039,0-.088-.007-.147s-.007-.108-.007-.147a1.412,1.412,0,0,1-.037-.162A1.357,1.357,0,0,0,238.507,0a5.86,5.86,0,0,0-3.676,2.176,6.705,6.705,0,0,0-1.147,3.778,8.216,8.216,0,0,0,1.529-.25A4.167,4.167,0,0,0,236.8,4.646Z" transform="translate(-223.644 0)" fill="#9b9b9b"/>
      </g>
    </g>
  </g>
</svg>
