<svg xmlns="http://www.w3.org/2000/svg" width="29" height="29" viewBox="0 0 29 29">
  <g id="face-detection" transform="translate(-5.938 -5.938)">
    <g id="Group_7190" data-name="Group 7190" transform="translate(5.938 5.938)">
      <g id="Group_7189" data-name="Group 7189">
        <path id="Path_3512" data-name="Path 3512" d="M188.8,280.249a5.627,5.627,0,0,0,9.3-3.366,1.611,1.611,0,0,0-3.2-.418,2.281,2.281,0,0,1-2.35,1.981,2.322,2.322,0,0,1-2.36-2.049,1.611,1.611,0,1,0-3.174.554A5.825,5.825,0,0,0,188.8,280.249Z" transform="translate(-178.055 -259.027)" fill="#fff"/>
        <path id="Path_3514" data-name="Path 3514" d="M95.7,100.51a11.149,11.149,0,0,1-5.2,1.268,11.27,11.27,0,1,1,9.966-5.992,1.611,1.611,0,0,0,2.845,1.513,14.493,14.493,0,1,0-6.122,6.07A1.611,1.611,0,1,0,95.7,100.51Z" transform="translate(-76 -76)" fill="#fff"/>
        <path id="Path_3517" data-name="Path 3517" d="M279.561,179a3.226,3.226,0,0,0-3.222,3.222,1.611,1.611,0,1,0,3.222,0,1.611,1.611,0,1,0,3.222,0A3.226,3.226,0,0,0,279.561,179Z" transform="translate(-260.201 -170.703)" fill="#fff"/>
        <path id="Path_3518" data-name="Path 3518" d="M161.172,183.833a1.611,1.611,0,0,0,1.611-1.611,3.222,3.222,0,1,0-6.444,0,1.611,1.611,0,1,0,3.222,0A1.611,1.611,0,0,0,161.172,183.833Z" transform="translate(-149.867 -170.703)" fill="#fff"/>
      </g>
    </g>
  </g>
</svg>
