<svg xmlns="http://www.w3.org/2000/svg" width="238.694" height="269.096" viewBox="0 0 238.694 269.096">
  <path id="Path_5" data-name="Path 5" d="M288.463,84.827h0a24.642,24.642,0,0,1,24.631,24.631v56.52a24.642,24.642,0,0,1-24.631,24.631h0V158.66a8.633,8.633,0,0,0-8.627-8.627h0a8.633,8.633,0,0,0-8.627,8.627v37.958a24.642,24.642,0,0,1-24.631,24.631h0V159.434a9.42,9.42,0,0,0-9.4-9.4h0a9.42,9.42,0,0,0-9.4,9.4v88.231A24.642,24.642,0,0,1,203.147,272.3h0V152.354a2.387,2.387,0,0,0-2.38-2.38h0a2.387,2.387,0,0,1-2.38-2.38V127.723a2.387,2.387,0,0,1,2.38-2.38h0a2.387,2.387,0,0,0,2.38-2.38V37.231a9.42,9.42,0,0,0-9.4-9.4h0a9.42,9.42,0,0,0-9.4,9.4v85.851a2.387,2.387,0,0,0,2.38,2.38h0a2.387,2.387,0,0,1,2.38,2.38v19.812a2.387,2.387,0,0,1-2.38,2.38h0a2.387,2.387,0,0,0-2.38,2.38V272.3h0a24.642,24.642,0,0,1-24.631-24.631V159.434a9.42,9.42,0,0,0-9.4-9.4h0a9.42,9.42,0,0,0-9.4,9.4V221.19h0a24.642,24.642,0,0,1-24.631-24.631V158.6a8.633,8.633,0,0,0-8.627-8.627h0a8.633,8.633,0,0,0-8.627,8.627V190.55h0A24.642,24.642,0,0,1,74.4,165.919V109.4A24.642,24.642,0,0,1,99.031,84.768h0v31.949a8.633,8.633,0,0,0,8.627,8.627h0a8.633,8.633,0,0,0,8.627-8.627V78.759a24.642,24.642,0,0,1,24.631-24.631h0v61.756a9.42,9.42,0,0,0,9.4,9.4h0a9.42,9.42,0,0,0,9.4-9.4V37.231A34.024,34.024,0,0,1,193.747,3.2h0a34.024,34.024,0,0,1,34.031,34.031V116a9.42,9.42,0,0,0,9.4,9.4h0a9.42,9.42,0,0,0,9.4-9.4V54.247h0a24.642,24.642,0,0,1,24.631,24.631v37.958a8.633,8.633,0,0,0,8.627,8.627h0a8.633,8.633,0,0,0,8.627-8.627V84.827Z" transform="translate(-74.4 -3.2)" fill="#fff"/>
</svg>
