<svg id="block" xmlns="http://www.w3.org/2000/svg" width="18.245" height="18.245" viewBox="0 0 18.245 18.245">
  <g id="Group_7333" data-name="Group 7333">
    <path id="Path_3641" data-name="Path 3641" d="M15.548,2.7A9.05,9.05,0,0,0,9.123,0a9.123,9.123,0,1,0,9.123,9.123A9.05,9.05,0,0,0,15.548,2.7ZM9.123,16.071A6.947,6.947,0,0,1,3.51,5.028l9.707,9.7A6.813,6.813,0,0,1,9.123,16.071Zm5.6-2.854L5.028,3.51A6.947,6.947,0,0,1,16.071,9.123,6.813,6.813,0,0,1,14.724,13.217Z" fill="#fff"/>
  </g>
</svg>
