<svg xmlns="http://www.w3.org/2000/svg" width="30.186" height="30.186" viewBox="0 0 30.186 30.186">
  <path id="comments" d="M15.093,0A15.095,15.095,0,0,0,2,22.606L.057,28.645a1.179,1.179,0,0,0,1.484,1.484L7.58,28.184A15.093,15.093,0,1,0,15.093,0Zm0,27.827A12.7,12.7,0,0,1,8.352,25.9a1.18,1.18,0,0,0-.987-.123l-4.359,1.4,1.4-4.359a1.18,1.18,0,0,0-.123-.987,12.735,12.735,0,1,1,10.805,5.994Zm1.474-12.735a1.474,1.474,0,1,1-1.474-1.474A1.474,1.474,0,0,1,16.567,15.093Zm5.9,0a1.474,1.474,0,1,1-1.474-1.474A1.474,1.474,0,0,1,22.462,15.093Zm-11.791,0A1.474,1.474,0,1,1,9.2,13.619,1.474,1.474,0,0,1,10.671,15.093Zm0,0" fill="#fff"/>
</svg>
