<svg xmlns="http://www.w3.org/2000/svg" width="18.087" height="18.076" viewBox="0 0 18.087 18.076">
  <g id="gps" transform="translate(0 0)">
    <path id="Path_3655" data-name="Path 3655" d="M171.8,168.7a3.078,3.078,0,1,0,3.079,3.078A3.082,3.082,0,0,0,171.8,168.7Zm0,0" transform="translate(-162.762 -162.739)" fill="#666"/>
    <path id="Path_3656" data-name="Path 3656" d="M17.557,8.508H15.612A6.606,6.606,0,0,0,9.568,2.464V.53a.53.53,0,1,0-1.06,0V2.464A6.606,6.606,0,0,0,2.465,8.508H.529a.53.53,0,0,0,0,1.06H2.465a6.606,6.606,0,0,0,6.044,6.044v1.934a.53.53,0,0,0,1.06,0V15.612a6.606,6.606,0,0,0,6.044-6.044h1.945a.53.53,0,0,0,0-1.06ZM9.038,14.574a5.536,5.536,0,1,1,5.535-5.535A5.542,5.542,0,0,1,9.038,14.574Zm0,0" transform="translate(0 0)" fill="#666"/>
  </g>
</svg>
