<svg xmlns="http://www.w3.org/2000/svg" width="32.971" height="31.678" viewBox="0 0 32.971 31.678">
  <g id="surface1" transform="translate(0 -0.5)">
    <path id="Path_3496" data-name="Path 3496" d="M125.755,10.127A9.627,9.627,0,1,1,116.127.5,9.627,9.627,0,0,1,125.755,10.127Zm0,0" transform="translate(-99.642)" fill="#42c0e2" opacity="0.81"/>
    <path id="Path_3497" data-name="Path 3497" d="M232.255,203.049a9.627,9.627,0,1,1-9.627-9.627A9.627,9.627,0,0,1,232.255,203.049Zm0,0" transform="translate(-199.283 -180.498)" fill="#ffd061" opacity="0.81"/>
    <path id="Path_3499" data-name="Path 3499" d="M19.255,203.049a9.627,9.627,0,1,1-9.627-9.627A9.627,9.627,0,0,1,19.255,203.049Zm0,0" transform="translate(0 -180.498)" fill="#fa70b2" opacity="0.81"/>
  </g>
</svg>
