<svg id="emojis" xmlns="http://www.w3.org/2000/svg" width="21" height="21" viewBox="0 0 21 21">
  <g id="Group_6927" data-name="Group 6927">
    <g id="Group_6926" data-name="Group 6926">
      <path id="Path_3429" data-name="Path 3429" d="M17.925,3.075A10.5,10.5,0,0,0,3.075,17.925,10.5,10.5,0,0,0,17.925,3.075ZM10.5,19.359A8.859,8.859,0,1,1,19.359,10.5,8.869,8.869,0,0,1,10.5,19.359Z" fill="#666"/>
    </g>
  </g>
  <g id="Group_6929" data-name="Group 6929" transform="translate(4.317 11.69)">
    <g id="Group_6928" data-name="Group 6928">
      <path id="Path_3430" data-name="Path 3430" d="M116.079,285.038a5.87,5.87,0,0,1-1.026,1.739,4.439,4.439,0,0,1-3.51,1.634,4.723,4.723,0,0,1-3.623-1.653,6.315,6.315,0,0,1-1.121-1.751l-1.537.574a7.858,7.858,0,0,0,1.4,2.226,6.389,6.389,0,0,0,4.886,2.245,6.1,6.1,0,0,0,4.8-2.263,7.426,7.426,0,0,0,1.293-2.243Z" transform="translate(-105.262 -285.006)" fill="#666"/>
    </g>
  </g>
  <g id="Group_6931" data-name="Group 6931" transform="translate(5.578 6.075)">
    <g id="Group_6930" data-name="Group 6930">
      <circle id="Ellipse_36" data-name="Ellipse 36" cx="1.313" cy="1.313" r="1.313" fill="#666"/>
    </g>
  </g>
  <g id="Group_6933" data-name="Group 6933" transform="translate(12.797 6.075)">
    <g id="Group_6932" data-name="Group 6932">
      <circle id="Ellipse_37" data-name="Ellipse 37" cx="1.313" cy="1.313" r="1.313" fill="#666"/>
    </g>
  </g>
</svg>
