<svg xmlns="http://www.w3.org/2000/svg" width="50" height="50" viewBox="0 0 50 50">
  <g id="Group_7451" data-name="Group 7451" transform="translate(-93 -736)">
    <circle id="Ellipse_59" data-name="Ellipse 59" cx="25" cy="25" r="25" transform="translate(93 736)" fill="#36446b" opacity="0.42"/>
    <path id="facebook" d="M127,10.343h2.129v8.764a.313.313,0,0,0,.313.313h3.609a.313.313,0,0,0,.313-.313V10.384h2.447a.313.313,0,0,0,.311-.277l.372-3.226a.313.313,0,0,0-.311-.349H133.36V4.509c0-.61.328-.919.976-.919h1.843a.313.313,0,0,0,.313-.313V.316A.313.313,0,0,0,136.179,0h-2.54c-.018,0-.058,0-.116,0a4.867,4.867,0,0,0-3.183,1.2,3.338,3.338,0,0,0-1.11,2.967V6.531H127a.313.313,0,0,0-.313.313V10.03A.313.313,0,0,0,127,10.343Z" transform="translate(-13.682 752)" fill="#385c8e"/>
  </g>
</svg>
