<svg id="flip" xmlns="http://www.w3.org/2000/svg" width="29" height="26.584" viewBox="0 0 29 26.584">
  <path id="Path_3520" data-name="Path 3520" d="M102.249,3.142h-2.46L98.7,1.016A1.875,1.875,0,0,0,97.018,0H92.98a1.878,1.878,0,0,0-1.687,1.016L90.209,3.142h-2.46A2.391,2.391,0,0,0,85.332,5.5v7.854a2.391,2.391,0,0,0,2.417,2.356h14.5a2.391,2.391,0,0,0,2.417-2.356V5.5a2.391,2.391,0,0,0-2.417-2.356ZM98.758,8.9a3.76,3.76,0,0,1-7.518,0,3.76,3.76,0,0,1,7.518,0Zm0,0" transform="translate(-80.499)" fill="#fff"/>
  <path id="Path_3521" data-name="Path 3521" d="M12.387,230.246c-.035,0-.071,0-.106,0C5.05,229.608,0,226.423,0,222.5a4.177,4.177,0,0,1,1.206-3.223,1.208,1.208,0,0,1,1.779,1.636,1.844,1.844,0,0,0-.568,1.587c0,2.5,4.425,4.843,10.074,5.337a1.209,1.209,0,0,1-.1,2.413Zm0,0" transform="translate(0 -206.485)" fill="#fff"/>
  <path id="Path_3522" data-name="Path 3522" d="M283.555,230.186a1.209,1.209,0,0,1-.131-2.411c5.691-.625,9.514-3.08,9.514-4.98a2.947,2.947,0,0,0-.687-2.043,1.209,1.209,0,1,1,2.02-1.327,5.237,5.237,0,0,1,1.084,3.37c0,3.534-4.907,6.639-11.667,7.383a1.242,1.242,0,0,1-.134.007Zm0,0" transform="translate(-266.355 -206.483)" fill="#fff"/>
  <path id="Path_3523" data-name="Path 3523" d="M175.236,333.965l-3.021-3.021a.906.906,0,0,0-1.547.641v6.042a.906.906,0,0,0,1.547.641l3.021-3.021A.905.905,0,0,0,175.236,333.965Zm0,0" transform="translate(-161.002 -311.949)" fill="#fff"/>
</svg>
