<svg xmlns="http://www.w3.org/2000/svg" width="21.527" height="16.001" viewBox="0 0 21.527 16.001">
  <g id="Group_23" data-name="Group 23" transform="translate(-238.541 -618.999)">
    <path id="user" d="M42.428,33.273a4.908,4.908,0,1,1,4.908-4.908A5.044,5.044,0,0,1,45.2,32.413,4.65,4.65,0,0,1,42.428,33.273Zm0-7.77a2.863,2.863,0,1,0,2.863,2.863A2.866,2.866,0,0,0,42.428,25.5Zm6.478,13.724a1.022,1.022,0,0,0,.143-1.439,7.55,7.55,0,0,0-5.861-2.777H41.975a7.549,7.549,0,0,0-5.861,2.777,1.022,1.022,0,0,0,1.582,1.3,5.512,5.512,0,0,1,4.279-2.028h1.213a5.512,5.512,0,0,1,4.279,2.028,1.022,1.022,0,0,0,1.439.143Z" transform="translate(202.658 595.541)" fill="#fff"/>
    <path id="Path_21" data-name="Path 21" d="M114.263,110.156h-2.907v-2.907a.581.581,0,0,0-1.163,0v2.907h-2.906a.581.581,0,0,0,0,1.163h2.906v2.907a.581.581,0,1,0,1.163,0v-2.907h2.907a.581.581,0,0,0,0-1.163Z" transform="translate(145.224 515.975)" fill="#fff"/>
  </g>
</svg>
