<svg xmlns="http://www.w3.org/2000/svg" width="50" height="50" viewBox="0 0 50 50">
  <g id="Group_7452" data-name="Group 7452" transform="translate(-163 -736)">
    <circle id="Ellipse_57" data-name="Ellipse 57" cx="25" cy="25" r="25" transform="translate(163 736)" fill="#36446b" opacity="0.42"/>
    <g id="search_1_" data-name="search (1)" transform="translate(178 752)">
      <path id="Path_3657" data-name="Path 3657" d="M4.286,144.732l-.673,2.513-2.46.052a9.686,9.686,0,0,1-.071-9.029h0l2.19.4.959,2.177a5.77,5.77,0,0,0,.054,3.885Z" transform="translate(0 -133.046)" fill="#fbbb00"/>
      <path id="Path_3658" data-name="Path 3658" d="M270.915,208.176a9.665,9.665,0,0,1-3.447,9.346h0l-2.759-.141-.39-2.437A5.763,5.763,0,0,0,266.8,212h-5.17v-3.825h9.287Z" transform="translate(-251.746 -200.313)" fill="#518ef8"/>
      <path id="Path_3659" data-name="Path 3659" d="M45.078,314.931h0a9.672,9.672,0,0,1-14.57-2.958l3.133-2.565a5.75,5.75,0,0,0,8.287,2.944Z" transform="translate(-29.357 -297.723)" fill="#28b446"/>
      <path id="Path_3660" data-name="Path 3660" d="M43.384,2.226,40.251,4.79A5.75,5.75,0,0,0,31.774,7.8l-3.15-2.579h0a9.671,9.671,0,0,1,14.76-3Z" transform="translate(-27.543)" fill="#f14336"/>
    </g>
  </g>
</svg>
