<svg xmlns="http://www.w3.org/2000/svg" width="52.899" height="37.471" viewBox="0 0 52.899 37.471">
  <g id="volume" transform="translate(0 -55.998)">
    <g id="Group_6975" data-name="Group 6975" transform="translate(0 55.998)">
      <g id="Group_6974" data-name="Group 6974">
        <path id="Path_3435" data-name="Path 3435" d="M25.255,56.243a2.2,2.2,0,0,0-2.288.164L8.074,67.019H2.2a2.2,2.2,0,0,0-2.2,2.2V80.244a2.2,2.2,0,0,0,2.2,2.2h5.87L22.966,93.06a2.2,2.2,0,0,0,3.484-1.8V58.2A2.2,2.2,0,0,0,25.255,56.243ZM7.714,78.04H4.408V71.427H7.714Zm14.327,8.948L12.123,79.92V69.547l9.919-7.068Z" transform="translate(0 -55.998)" fill="#fff"/>
      </g>
    </g>
    <g id="Group_6977" data-name="Group 6977" transform="translate(30.858 66.517)">
      <g id="Group_6976" data-name="Group 6976" transform="translate(0 0)">
        <path id="Path_3436" data-name="Path 3436" d="M227.757,133a2.2,2.2,0,0,0-3.1,3.131,6.219,6.219,0,0,1,0,8.9,2.2,2.2,0,1,0,3.1,3.129,10.625,10.625,0,0,0,0-15.156Z" transform="translate(-224.001 -132.358)" fill="#fff"/>
      </g>
    </g>
    <g id="Group_6979" data-name="Group 6979" transform="translate(36.189 61.269)">
      <g id="Group_6978" data-name="Group 6978">
        <path id="Path_3437" data-name="Path 3437" d="M266.446,94.9a2.2,2.2,0,1,0-3.087,3.146,13.524,13.524,0,0,1,0,19.376,2.2,2.2,0,0,0,3.087,3.148,17.932,17.932,0,0,0,0-25.669Z" transform="translate(-262.698 -94.264)" fill="#fff"/>
      </g>
    </g>
    <g id="Group_6981" data-name="Group 6981" transform="translate(41.542 55.999)">
      <g id="Group_6980" data-name="Group 6980">
        <path id="Path_3438" data-name="Path 3438" d="M305.306,56.641a2.2,2.2,0,0,0-3.094,3.142,20.931,20.931,0,0,1,0,29.92,2.2,2.2,0,1,0,3.092,3.141,25.34,25.34,0,0,0,0-36.2Z" transform="translate(-301.555 -56.008)" fill="#fff"/>
      </g>
    </g>
  </g>
</svg>
