<?xml version="1.0" standalone="no"?>
<!DOCTYPE svg PUBLIC "-//W3C//DTD SVG 20010904//EN"
 "http://www.w3.org/TR/2001/REC-SVG-20010904/DTD/svg10.dtd">
<svg version="1.0" xmlns="http://www.w3.org/2000/svg"
 width="192.000000pt" height="192.000000pt" viewBox="0 0 192.000000 192.000000"
 preserveAspectRatio="xMidYMid meet">

<g transform="translate(0.000000,192.000000) scale(0.100000,-0.100000)"
fill="#000000" stroke="none">
<path d="M727 1799 c-17 -63 44 -232 89 -249 29 -11 62 0 88 29 43 48 -6 168
-89 217 -52 30 -81 31 -88 3z"/>
<path d="M936 1741 c-3 -4 -1 -46 4 -92 6 -46 10 -90 10 -96 0 -23 39 -53 68
-53 84 0 82 129 -3 215 -34 33 -68 45 -79 26z"/>
<path d="M599 1713 c-17 -43 -14 -172 5 -218 22 -54 47 -69 90 -55 58 19 71
80 35 175 -22 59 -76 125 -103 125 -9 0 -21 -12 -27 -27z"/>
<path d="M817 1467 c-69 -42 -107 -120 -107 -220 0 -48 18 -115 92 -343 50
-156 96 -284 100 -284 5 0 20 24 33 53 42 89 36 153 -35 370 -33 102 -60 196
-60 209 0 32 36 78 61 78 54 0 81 -101 40 -151 -18 -22 -18 -24 4 -88 12 -36
27 -67 34 -69 17 -6 66 43 86 84 46 97 40 211 -15 297 -52 83 -155 111 -233
64z"/>
<path d="M531 1444 c-12 -45 1 -128 28 -182 44 -86 121 -58 121 44 0 26 -9 45
-38 77 -21 23 -46 54 -55 70 -24 37 -44 34 -56 -9z"/>
<path d="M230 379 l0 -190 33 3 c32 3 32 3 35 66 3 57 5 62 26 62 74 0 116 44
116 124 0 93 -38 126 -145 126 l-65 0 0 -191z m124 105 c33 -32 10 -94 -35
-94 -16 0 -19 7 -19 55 0 48 3 55 19 55 11 0 27 -7 35 -16z"/>
<path d="M740 531 c0 -23 -4 -41 -10 -41 -5 0 -10 -18 -10 -40 0 -22 5 -40 10
-40 6 0 10 -44 10 -111 l0 -110 33 3 32 3 3 108 c2 86 6 107 17 107 11 0 15
12 15 40 0 28 -4 40 -14 40 -10 0 -16 13 -18 38 -3 34 -6 37 -35 40 -32 3 -33
2 -33 -37z"/>
<path d="M857 564 c-4 -4 -7 -25 -7 -46 0 -36 2 -38 30 -38 l29 0 3 -142 3
-143 35 0 35 0 3 143 3 142 30 0 c29 0 30 1 27 43 l-3 42 -90 3 c-50 1 -94 0
-98 -4z"/>
<path d="M1360 565 c0 -3 -1 -87 -1 -187 l0 -183 30 -3 30 -3 3 63 3 63 24
-45 c34 -66 50 -80 88 -80 18 0 33 3 33 8 0 4 -20 40 -45 81 -24 41 -41 80
-38 85 4 6 24 37 45 69 l39 57 -41 0 c-38 0 -43 -3 -73 -52 l-32 -51 -3 91 -3
92 -29 0 c-17 0 -30 -2 -30 -5z"/>
<path d="M534 482 c-60 -38 -82 -149 -44 -227 35 -71 118 -89 171 -36 35 35
36 45 7 65 -20 14 -24 14 -43 -4 -26 -25 -47 -25 -68 -2 -32 35 -21 42 63 42
l80 0 0 33 c0 37 -29 106 -53 125 -27 23 -79 25 -113 4z m94 -90 c2 -8 -12
-12 -42 -12 -50 0 -58 11 -24 34 19 13 25 14 42 3 11 -8 22 -19 24 -25z"/>
<path d="M1140 487 c-57 -29 -90 -121 -71 -195 33 -122 176 -147 233 -42 24
46 24 134 0 180 -31 59 -106 85 -162 57z m87 -93 c21 -21 24 -32 20 -61 -8
-46 -23 -63 -58 -63 -57 0 -76 100 -26 135 29 20 34 19 64 -11z"/>
</g>
</svg>
