<svg xmlns="http://www.w3.org/2000/svg" width="18.245" height="18.484" viewBox="0 0 18.245 18.484">
  <g id="bell_1_" data-name="bell (1)" transform="translate(-3.101 0)">
    <g id="Group_7330" data-name="Group 7330" transform="translate(3.101 0)">
      <path id="Path_3640" data-name="Path 3640" d="M21.321,12.962a2.358,2.358,0,0,0-.077-.316A2.026,2.026,0,0,0,19,11.332a.588.588,0,0,1-.671-.49l-.486-3.114A6.814,6.814,0,0,0,12.961,2.2,2.623,2.623,0,0,0,7.777,3,6.556,6.556,0,0,0,4.8,9.57l.524,3.319a.591.591,0,0,1-.49.671A2.029,2.029,0,0,0,3.1,15.5a1.972,1.972,0,0,0,1.954,1.993h.019a2.076,2.076,0,0,0,.308-.023l2.024-.32a2.611,2.611,0,0,0,4.837-.759l7.435-1.172A1.973,1.973,0,0,0,21.321,12.962ZM9.677,17.171a1.3,1.3,0,0,1-.775-.254l1.842-.289A1.311,1.311,0,0,1,9.677,17.171ZM11.45,1.981A6.708,6.708,0,0,0,10.714,2a6.473,6.473,0,0,0-.767.119c-.054.012-.108.027-.162.039-.208.05-.409.1-.609.173a.361.361,0,0,0-.062.015A1.31,1.31,0,0,1,10.178,1.4a1.261,1.261,0,0,1,.208-.015,1.322,1.322,0,0,1,1.095.594Z" transform="translate(-3.101 0)" fill="#fff"/>
    </g>
  </g>
</svg>
