<svg xmlns="http://www.w3.org/2000/svg" width="18.331" height="28.997" viewBox="0 0 18.331 28.997">
  <g id="Group_7197" data-name="Group 7197" transform="translate(-325.056 -349)">
    <g id="flash" transform="translate(325.056 349)">
      <g id="Group_7191" data-name="Group 7191" transform="translate(0 0)">
        <path id="Path_3541" data-name="Path 3541" d="M112.439,13.968a1.184,1.184,0,0,0-.882-.787l-5.687-1.19,1.716-10.616a1.185,1.185,0,0,0-2.077-.952L94.446,13.579a1.185,1.185,0,0,0,.526,1.885l5.516,1.872L98.264,27.561a1.185,1.185,0,0,0,2.047,1.036L112.2,15.126A1.185,1.185,0,0,0,112.439,13.968Zm-10.889,9.644,1.481-6.807a1.185,1.185,0,0,0-.777-1.374l-4.876-1.655,7.184-8.543-1.212,7.5a1.185,1.185,0,0,0,.927,1.349l4.8,1Z" transform="translate(-94.169 -0.001)" fill="#fff"/>
      </g>
    </g>
    <path id="Path_3552" data-name="Path 3552" d="M1.243,0A1.243,1.243,0,0,1,2.485,1.243V21.955a1.243,1.243,0,0,1-2.485,0V1.243A1.243,1.243,0,0,1,1.243,0Z" transform="translate(326.93 354.182) rotate(-30)" fill="#fff"/>
  </g>
</svg>
