<svg id="play-button" xmlns="http://www.w3.org/2000/svg" width="66.165" height="66.165" viewBox="0 0 66.165 66.165">
  <g id="Group_7004" data-name="Group 7004">
    <g id="Group_7003" data-name="Group 7003">
      <path id="Path_3443" data-name="Path 3443" d="M56.476,9.69A33.083,33.083,0,0,0,9.69,56.476,33.1,33.1,0,0,0,50.2,61.4a2.585,2.585,0,0,0-2.678-4.421,28.161,28.161,0,1,1,8.741-8.4,2.585,2.585,0,1,0,4.3,2.873A33,33,0,0,0,56.476,9.69Z" fill="#fff"/>
      <path id="Path_3444" data-name="Path 3444" d="M175.757,146.068a5.824,5.824,0,0,0-8.742,5.052v16.924a5.809,5.809,0,0,0,8.742,5.052l14.583-8.462a5.845,5.845,0,0,0,0-10.1Zm11.989,14.1-14.583,8.462a.616.616,0,0,1-.645,0,.639.639,0,0,1-.333-.582V151.12a.639.639,0,0,1,.333-.582.649.649,0,0,1,.323-.091.636.636,0,0,1,.323.092L187.746,159a.675.675,0,0,1,0,1.162Z" transform="translate(-145.432 -126.499)" fill="#fff"/>
    </g>
  </g>
</svg>
