<svg xmlns="http://www.w3.org/2000/svg" width="13.711" height="18" viewBox="0 0 13.711 18">
  <g id="insurance" transform="translate(-61)">
    <path id="Path_3636" data-name="Path 3636" d="M351,8.787v3.207h3.207Z" transform="translate(-279.805 -8.478)" fill="#fff"/>
    <path id="Path_3637" data-name="Path 3637" d="M175.074,192H172.9a2.782,2.782,0,0,1-1.9,1.357v2.531a4.377,4.377,0,0,0,2.988,4.172,4.377,4.377,0,0,0,2.988-4.172v-2.531A2.782,2.782,0,0,1,175.074,192Zm.779,3.421-1.989,1.989a.527.527,0,0,1-.746,0l-.994-.994a.527.527,0,0,1,.746-.746l.622.621,1.616-1.616a.527.527,0,1,1,.746.746Z" transform="translate(-106.133 -185.25)" fill="#fff"/>
    <path id="Path_3638" data-name="Path 3638" d="M70.668,4.57a.527.527,0,0,1-.527-.527V0H62.934A1.936,1.936,0,0,0,61,1.934V16.066A1.936,1.936,0,0,0,62.934,18h9.844a1.936,1.936,0,0,0,1.934-1.934V4.57Zm1.23,6.068a5.46,5.46,0,0,1-3.891,5.23.527.527,0,0,1-.3,0,5.46,5.46,0,0,1-3.891-5.23V7.629A.527.527,0,0,1,64.34,7.1,1.738,1.738,0,0,0,65.9,6.135l.074-.148a.527.527,0,0,1,.472-.292h2.813a.527.527,0,0,1,.472.292l.074.148a1.738,1.738,0,0,0,1.563.966.527.527,0,0,1,.527.527Z" fill="#fff"/>
  </g>
</svg>
