<svg xmlns="http://www.w3.org/2000/svg" width="38" height="38" viewBox="0 0 38 38">
  <g id="Group_6925" data-name="Group 6925" transform="translate(9583 18333)">
    <circle id="Ellipse_35" data-name="Ellipse 35" cx="19" cy="19" r="19" transform="translate(-9583 -18333)" fill="#36446b"/>
    <g id="post" transform="translate(-9573.493 -18321.639)">
      <path id="Path_3427" data-name="Path 3427" d="M8.75,17.612v3.283a.531.531,0,0,0,.958.314l1.92-2.613Z" transform="translate(-2.557 -5.147)" fill="#fff"/>
      <path id="Path_3428" data-name="Path 3428" d="M16.763.1A.531.531,0,0,0,16.21.06L.285,8.376a.531.531,0,0,0,.074.973l4.427,1.513L14.214,2.8l-7.3,8.79,7.419,2.536a.543.543,0,0,0,.171.028.53.53,0,0,0,.525-.452L16.981.609A.532.532,0,0,0,16.763.1Z" transform="translate(0 0)" fill="#fff"/>
    </g>
  </g>
</svg>
