<svg id="re-record" xmlns="http://www.w3.org/2000/svg" width="56" height="56" viewBox="0 0 56 56">
  <g id="Group_7556" data-name="Group 7556">
    <g id="Group_7555" data-name="Group 7555">
      <path id="Path_3671" data-name="Path 3671" d="M28,0A28,28,0,1,0,56,28,28.032,28.032,0,0,0,28,0Zm0,50.909A22.909,22.909,0,1,1,50.909,28,22.935,22.935,0,0,1,28,50.909Z" fill="#fff"/>
    </g>
  </g>
  <g id="Group_7558" data-name="Group 7558" transform="translate(14.707 12.929)">
    <g id="Group_7557" data-name="Group 7557">
      <path id="Path_3672" data-name="Path 3672" d="M153.31,140.676A8.058,8.058,0,1,1,147,126.961l-1.024,3.018a2.546,2.546,0,0,0,3.536,3.1l6.725-3.316a2.545,2.545,0,0,0,1.157-3.409l-3.316-6.724a2.546,2.546,0,0,0-4.693.308l-.658,1.939c-.406-.034-.816-.05-1.228-.047a13.146,13.146,0,1,0,9.412,22.446,2.545,2.545,0,1,0-3.6-3.6Z" transform="translate(-134.463 -118.211)" fill="#fff"/>
    </g>
  </g>
</svg>
