<svg xmlns="http://www.w3.org/2000/svg" width="13.898" height="18.245" viewBox="0 0 13.898 18.245">
  <path id="Path_3642" data-name="Path 3642" d="M62.6,18.245h10.69a1.605,1.605,0,0,0,1.6-1.6V5.345H71.156a1.605,1.605,0,0,1-1.6-1.6V0H62.6A1.605,1.605,0,0,0,61,1.6V16.642A1.605,1.605,0,0,0,62.6,18.245ZM64.742,7.519h6.414a.535.535,0,0,1,0,1.069H64.742a.535.535,0,1,1,0-1.069Zm0,2.138h6.414a.535.535,0,0,1,0,1.069H64.742a.535.535,0,1,1,0-1.069Zm0,2.138h6.414a.535.535,0,0,1,0,1.069H64.742a.535.535,0,1,1,0-1.069Zm0,2.138h4.276a.535.535,0,0,1,0,1.069H64.742a.535.535,0,1,1,0-1.069Z" transform="translate(-61)" fill="#fff"/>
</svg>
