<svg xmlns="http://www.w3.org/2000/svg" width="20.572" height="20.572" viewBox="0 0 20.572 20.572">
  <path id="settings" d="M18.678,7.747h-.437a8.307,8.307,0,0,0-.535-1.29l.309-.309a1.894,1.894,0,0,0,0-2.679L17.1,2.557a1.894,1.894,0,0,0-2.679,0l-.31.31a8.313,8.313,0,0,0-1.29-.535V1.894A1.9,1.9,0,0,0,10.932,0H9.641A1.9,1.9,0,0,0,7.747,1.894v.437a8.305,8.305,0,0,0-1.29.535l-.309-.309a1.894,1.894,0,0,0-2.679,0l-.913.913a1.894,1.894,0,0,0,0,2.679l.31.31a8.306,8.306,0,0,0-.535,1.29H1.894A1.9,1.9,0,0,0,0,9.641v1.291a1.9,1.9,0,0,0,1.894,1.894h.437a8.308,8.308,0,0,0,.535,1.29l-.309.309a1.894,1.894,0,0,0,0,2.679l.913.912a1.894,1.894,0,0,0,2.679,0l.31-.31a8.313,8.313,0,0,0,1.29.535v.437a1.9,1.9,0,0,0,1.894,1.894h1.291a1.9,1.9,0,0,0,1.894-1.894v-.437a8.305,8.305,0,0,0,1.29-.535l.309.309a1.894,1.894,0,0,0,2.679,0l.913-.913a1.894,1.894,0,0,0,0-2.679l-.31-.31a8.305,8.305,0,0,0,.535-1.29h.437a1.9,1.9,0,0,0,1.894-1.894V9.64a1.9,1.9,0,0,0-1.894-1.894Zm-8.392,7.015a4.476,4.476,0,1,1,4.476-4.476A4.481,4.481,0,0,1,10.286,14.762Z" fill="#fff"/>
</svg>
