<svg xmlns="http://www.w3.org/2000/svg" width="30.205" height="30.206" viewBox="0 0 30.205 30.206">
  <path id="share" d="M1.077,10.5l11.717,7.4,7.4,11.716a1.258,1.258,0,0,0,1.064.587,1.227,1.227,0,0,0,.174-.012,1.259,1.259,0,0,0,1.034-.89l8.181-27.69a1.319,1.319,0,0,0,.031-.163c0-.019.008-.036.011-.055a1.229,1.229,0,0,0-.014-.357c0-.023-.009-.045-.014-.068a1.272,1.272,0,0,0-.132-.342s0-.01-.006-.016A1.259,1.259,0,0,0,30.442.5C30.429.484,30.418.465,30.4.448a1.259,1.259,0,0,0-.159-.159C30.23.277,30.214.268,30.2.257a1.257,1.257,0,0,0-.145-.1c-.022-.013-.045-.023-.069-.033a1.377,1.377,0,0,0-.151-.062c-.013,0-.024-.011-.037-.015s-.024,0-.035-.007A1.352,1.352,0,0,0,29.593.01L29.527,0a1.306,1.306,0,0,0-.2,0H29.3a1.262,1.262,0,0,0-.213.043L1.393,8.23A1.259,1.259,0,0,0,1.077,10.5ZM25.05,3.865,19.739,9.177a1.259,1.259,0,0,0,1.78,1.78L26.83,5.645l-5.992,20.28-5.531-8.757,2.436-2.436a1.259,1.259,0,1,0-1.78-1.78l-2.436,2.435L4.771,9.857Zm0,0" transform="translate(-0.491 0.001)" fill="#fff"/>
</svg>
