<svg xmlns="http://www.w3.org/2000/svg" width="16.875" height="16.108" viewBox="0 0 16.875 16.108">
  <path id="music-note" d="M16.875,11.125a2.266,2.266,0,0,0-2.263-2.263H7.644a2.266,2.266,0,0,0-2.264,2.263v7.623l-.158-.07a3.884,3.884,0,0,0-1.587-.33A3.489,3.489,0,0,0,0,21.659,3.489,3.489,0,0,0,3.636,24.97a3.788,3.788,0,0,0,2.536-.943,3.162,3.162,0,0,0,1.088-2.317v-.035l.013-10.549a.373.373,0,0,1,.372-.372h6.967a.373.373,0,0,1,.372.372v6.167l-.158-.07a3.884,3.884,0,0,0-1.587-.331A3.489,3.489,0,0,0,9.6,20.2a3.489,3.489,0,0,0,3.636,3.311A3.489,3.489,0,0,0,16.874,20.2Zm-13.238,12a1.651,1.651,0,0,1-1.787-1.462A1.651,1.651,0,0,1,3.636,20.2a1.651,1.651,0,0,1,1.787,1.462A1.651,1.651,0,0,1,3.636,23.121Zm9.6-1.456A1.651,1.651,0,0,1,11.451,20.2a1.651,1.651,0,0,1,1.787-1.462A1.651,1.651,0,0,1,15.025,20.2,1.651,1.651,0,0,1,13.238,21.664Z" transform="translate(0 -8.862)" fill="#fff"/>
</svg>
