<svg id="play-button" xmlns="http://www.w3.org/2000/svg" width="29.541" height="29.541" viewBox="0 0 29.541 29.541">
  <g id="Group_7079" data-name="Group 7079">
    <g id="Group_7078" data-name="Group 7078">
      <path id="Path_3473" data-name="Path 3473" d="M25.215,4.326A14.77,14.77,0,0,0,4.326,25.215a14.776,14.776,0,0,0,18.087,2.2,1.154,1.154,0,0,0-1.2-1.974,12.573,12.573,0,1,1,3.9-3.751,1.154,1.154,0,1,0,1.919,1.283A14.734,14.734,0,0,0,25.215,4.326Z" fill="#fff"/>
      <path id="Path_3474" data-name="Path 3474" d="M170.918,145.628a2.6,2.6,0,0,0-3.9,2.256v7.556a2.594,2.594,0,0,0,3.9,2.256l6.511-3.778a2.609,2.609,0,0,0,0-4.511Zm5.353,6.293L169.76,155.7a.275.275,0,0,1-.288,0,.285.285,0,0,1-.149-.26v-7.556a.285.285,0,0,1,.149-.26.29.29,0,0,1,.144-.041.284.284,0,0,1,.144.041l6.511,3.778a.3.3,0,0,1,0,.519Z" transform="translate(-157.379 -136.891)" fill="#fff"/>
    </g>
  </g>
</svg>
