<svg xmlns="http://www.w3.org/2000/svg" width="13.267" height="16.107" viewBox="0 0 13.267 16.107">
  <g id="sound-waves" transform="translate(0 -89.741)">
    <g id="Group_29" data-name="Group 29" transform="translate(7.389 93.29)">
      <g id="Group_28" data-name="Group 28">
        <path id="Path_23" data-name="Path 23" d="M213.438,189.02a1.145,1.145,0,0,0-1.145,1.145v6.717a1.145,1.145,0,0,0,2.29,0v-6.717A1.145,1.145,0,0,0,213.438,189.02Z" transform="translate(-212.293 -189.02)" fill="#fff"/>
      </g>
    </g>
    <g id="Group_35" data-name="Group 35" transform="translate(3.588 89.741)">
      <g id="Group_34" data-name="Group 34">
        <path id="Path_26" data-name="Path 26" d="M54.5,136.231a1.145,1.145,0,0,0-1.145,1.145v13.817a1.145,1.145,0,1,0,2.29,0V137.376A1.145,1.145,0,0,0,54.5,136.231Z" transform="translate(-53.357 -136.231)" fill="#fff"/>
      </g>
    </g>
    <g id="Group_37" data-name="Group 37" transform="translate(0 93.061)">
      <g id="Group_36" data-name="Group 36">
        <path id="Path_27" data-name="Path 27" d="M1.145,185.614A1.145,1.145,0,0,0,0,186.759v7.176a1.145,1.145,0,0,0,2.29,0v-7.176A1.145,1.145,0,0,0,1.145,185.614Z" transform="translate(0 -185.614)" fill="#fff"/>
      </g>
    </g>
    <g id="Group_43" data-name="Group 43" transform="translate(10.977 91.534)">
      <g id="Group_42" data-name="Group 42">
        <path id="Path_30" data-name="Path 30" d="M266.8,162.909a1.145,1.145,0,0,0-1.145,1.145v10.229a1.145,1.145,0,1,0,2.29,0V164.054A1.145,1.145,0,0,0,266.8,162.909Z" transform="translate(-265.65 -162.909)" fill="#fff"/>
      </g>
    </g>
  </g>
</svg>
