<svg xmlns="http://www.w3.org/2000/svg" width="29" height="17.943" viewBox="0 0 29 17.943">
  <g id="speed-control-of-semicircular-shape" transform="translate(-0.001 -187.338)">
    <path id="Path_3510" data-name="Path 3510" d="M24.062,190.891a14.654,14.654,0,0,0-14.749-2.606A14.648,14.648,0,0,0,.04,199.7a3.248,3.248,0,0,0,3.2,3.754h8.3a3.3,3.3,0,0,0,5.914,0h8.3a3.248,3.248,0,0,0,3.2-3.754A14.632,14.632,0,0,0,24.062,190.891ZM14.5,203.215a1.246,1.246,0,0,1-1.113-.691,1.221,1.221,0,0,1-.127-.549,1.239,1.239,0,1,1,1.239,1.239ZM25.977,200.4a.288.288,0,0,1-.221.1h-8.3a3.31,3.31,0,0,0-2.957-1.83c-.094,0-.189,0-.283.012l-3.789-5.005a.887.887,0,0,0-1.5.927l2.762,5.637a2.781,2.781,0,0,0-.145.26h-8.3a.278.278,0,0,1-.221-.1.292.292,0,0,1-.068-.242,11.676,11.676,0,0,1,10.367-9.806v2.4a1.18,1.18,0,1,0,2.361,0v-2.4a11.641,11.641,0,0,1,6.454,2.777,11.688,11.688,0,0,1,3.913,7.029A.31.31,0,0,1,25.977,200.4Z" fill="#fff"/>
  </g>
</svg>
