<svg id="Group_2" data-name="Group 2" xmlns="http://www.w3.org/2000/svg" width="26.363" height="22" viewBox="0 0 26.363 22">
  <path id="Path_4" data-name="Path 4" d="M4.907,208.6h0a1.009,1.009,0,0,1,1.007,1.007h0a1.009,1.009,0,0,1-1.007,1.007h0A1.009,1.009,0,0,1,3.9,209.607h0A1.009,1.009,0,0,1,4.907,208.6Z" transform="translate(-3.9 -198.609)" fill="#36446b"/>
  <path id="Path_5" data-name="Path 5" d="M91.9,9.873h0a2.015,2.015,0,0,1,2.014,2.014v4.621A2.015,2.015,0,0,1,91.9,18.522h0V15.91A.706.706,0,0,0,91.2,15.2h0a.706.706,0,0,0-.705.705v3.1a2.015,2.015,0,0,1-2.014,2.014h0V15.973a.77.77,0,0,0-.769-.769h0a.77.77,0,0,0-.769.769v7.213A2.015,2.015,0,0,1,84.926,25.2h0V15.394a.2.2,0,0,0-.195-.195h0A.2.2,0,0,1,84.537,15V13.38a.2.2,0,0,1,.195-.195h0a.2.2,0,0,0,.195-.195V5.982a.77.77,0,0,0-.769-.769h0a.77.77,0,0,0-.769.769V13a.2.2,0,0,0,.195.195h0a.2.2,0,0,1,.195.195v1.62a.2.2,0,0,1-.195.195h0a.2.2,0,0,0-.195.195v9.8h0a2.015,2.015,0,0,1-2.014-2.014V15.973a.77.77,0,0,0-.769-.769h0a.77.77,0,0,0-.769.769v5.049h0a2.015,2.015,0,0,1-2.014-2.014V15.9a.706.706,0,0,0-.705-.705h0a.706.706,0,0,0-.705.705v2.612h0A2.015,2.015,0,0,1,74.4,16.5V11.882a2.015,2.015,0,0,1,2.014-2.014h0v2.612a.706.706,0,0,0,.705.705h0a.706.706,0,0,0,.705-.705v-3.1a2.015,2.015,0,0,1,2.014-2.014h0v5.049a.77.77,0,0,0,.769.769h0a.77.77,0,0,0,.769-.769V5.982A2.782,2.782,0,0,1,84.157,3.2h0A2.782,2.782,0,0,1,86.94,5.982v6.44a.77.77,0,0,0,.769.769h0a.77.77,0,0,0,.769-.769V7.373h0A2.015,2.015,0,0,1,90.49,9.387v3.1a.706.706,0,0,0,.705.705h0a.706.706,0,0,0,.705-.705Z" transform="translate(-70.971 -3.2)" fill="#36446b"/>
  <path id="Path_6" data-name="Path 6" d="M506.514,209.607h0a1.009,1.009,0,0,1-1.007,1.007h0a1.009,1.009,0,0,1-1.007-1.007h0a1.009,1.009,0,0,1,1.007-1.007h0A1.006,1.006,0,0,1,506.514,209.607Z" transform="translate(-480.151 -198.609)" fill="#36446b"/>
</svg>
