<svg xmlns="http://www.w3.org/2000/svg" width="21.713" height="22.001" viewBox="0 0 21.713 22.001">
  <g id="notification" transform="translate(-3.137 0.001)">
    <g id="Group_9" data-name="Group 9" transform="translate(3.137 -0.001)">
      <path id="Path_9" data-name="Path 9" d="M24.822,15.429a2.348,2.348,0,0,0-.093-.38,2.413,2.413,0,0,0-2.676-1.563.7.7,0,0,1-.8-.582l-.58-3.712a8.1,8.1,0,0,0-5.8-6.576,3.121,3.121,0,0,0-6.17.949,7.811,7.811,0,0,0-3.538,7.821l.622,3.95a.7.7,0,0,1-.582.8,2.414,2.414,0,0,0-2.068,2.309,2.349,2.349,0,0,0,2.324,2.373h.024a2.408,2.408,0,0,0,.366-.028l2.41-.379a3.106,3.106,0,0,0,5.754-.905l8.85-1.393A2.349,2.349,0,0,0,24.822,15.429ZM11.561,1.665a1.644,1.644,0,0,1,.247-.02,1.574,1.574,0,0,1,1.3.7h-.038a7.462,7.462,0,0,0-.875.025,7.952,7.952,0,0,0-.912.141c-.065.013-.129.032-.193.048-.247.058-.489.126-.726.207-.023.007-.048.011-.071.02A1.566,1.566,0,0,1,11.561,1.665Zm-.595,18.769a1.544,1.544,0,0,1-.921-.3l2.192-.344A1.566,1.566,0,0,1,10.966,20.434Zm12.2-4.233a.783.783,0,0,1-.548.366l-9.43,1.483-4.582.721-3,.47a.774.774,0,0,1-.633-.18.783.783,0,0,1-.275-.606.849.849,0,0,1,.745-.772A2.27,2.27,0,0,0,7.333,15.1l-.621-3.95A6.279,6.279,0,0,1,9.879,4.681l.04-.016a6.263,6.263,0,0,1,2.422-.731,5.654,5.654,0,0,1,.773-.015l.128.006a6.156,6.156,0,0,1,.795.1h.025a6.506,6.506,0,0,1,5.06,5.41l.584,3.712A2.265,2.265,0,0,0,22.3,15.033a.849.849,0,0,1,.946.5A.783.783,0,0,1,23.169,16.2Z" transform="translate(-3.137 0.001)" fill="#fff"/>
    </g>
  </g>
</svg>
