<svg xmlns="http://www.w3.org/2000/svg" width="29" height="28.997" viewBox="0 0 29 28.997">
  <g id="timer" transform="translate(-0.001 -0.02)">
    <path id="Path_3524" data-name="Path 3524" d="M16,.095A14.9,14.9,0,0,0,14.5.02h-.015A1.51,1.51,0,0,0,13,1.542V7.519a1.419,1.419,0,0,0,.12.585,1.5,1.5,0,0,0,1.563.9A1.546,1.546,0,0,0,16,7.451V3.119A11.5,11.5,0,1,1,8.925,4.466a1.489,1.489,0,0,0,.639-1.872l0,0a1.5,1.5,0,0,0-2.117-.74A14.5,14.5,0,1,0,16,.095Zm0,0" transform="translate(0)" fill="#fff"/>
    <path id="Path_3525" data-name="Path 3525" d="M158.735,159.627a28.792,28.792,0,0,0,4.054,6.937,2.58,2.58,0,0,0,3.531.313,2.5,2.5,0,0,0,.162-3.684,27.149,27.149,0,0,0-7.107-4.214.5.5,0,0,0-.64.648Zm0,0" transform="translate(-149.711 -149.927)" fill="#fff"/>
  </g>
</svg>
