<svg xmlns="http://www.w3.org/2000/svg" width="18" height="18" viewBox="0 0 18 18">
  <g id="translation" transform="translate(0)">
    <path id="Path_3646" data-name="Path 3646" d="M369.527,34.055a2.288,2.288,0,0,1,2.285,2.285.527.527,0,1,0,1.055,0,3.344,3.344,0,0,0-3.34-3.34.527.527,0,0,0,0,1.055Z" transform="translate(-356.027 -31.84)" fill="#fff"/>
    <path id="Path_3647" data-name="Path 3647" d="M36.34,371.813a2.288,2.288,0,0,1-2.285-2.285.527.527,0,0,0-1.055,0,3.344,3.344,0,0,0,3.34,3.34.527.527,0,1,0,0-1.055Z" transform="translate(-31.84 -356.027)" fill="#fff"/>
    <path id="Path_3648" data-name="Path 3648" d="M5.255,8.121,5,8.885a.527.527,0,1,1-1-.333L5.687,3.49a.527.527,0,0,1,1,0l.864,2.594a7.158,7.158,0,0,1,4.57-1.422,6.153,6.153,0,1,0-7.46,7.46,7.152,7.152,0,0,1,1.038-4Z" fill="#fff"/>
    <path id="Path_3649" data-name="Path 3649" d="M168.97,162.831a6.138,6.138,0,1,0,6.138,6.138A6.138,6.138,0,0,0,168.97,162.831Zm-1.955,8.484a.527.527,0,1,1-.659-.823,4.657,4.657,0,0,0,1.181-3h-.852a.527.527,0,0,1,0-1.055h1.406a.528.528,0,0,1,.527.527C168.619,167.091,168.6,170.046,167.015,171.315Zm4.171-2.416h-.6v2.566a.527.527,0,0,1-1.055,0V166.4a.527.527,0,1,1,1.055,0v1.441h.6a.527.527,0,0,1,0,1.055Z" transform="translate(-157.107 -157.106)" fill="#fff"/>
    <path id="Path_3650" data-name="Path 3650" d="M159.48,153.173h1.162l-.581-1.743Z" transform="translate(-153.873 -146.106)" fill="#fff"/>
  </g>
</svg>
