<svg xmlns="http://www.w3.org/2000/svg" width="30.889" height="33.368" viewBox="0 0 30.889 33.368">
  <g id="photo-gallery" transform="translate(-6.472)">
    <path id="Path_3494" data-name="Path 3494" d="M77.709,38.009a3.27,3.27,0,0,0-6.121,1.6,3.058,3.058,0,0,0,.057.6,3.27,3.27,0,0,0,2.612,2.622,3.06,3.06,0,0,0,.6.057,3.264,3.264,0,0,0,2.851-1.668,3.3,3.3,0,0,0,.419-1.611,3.2,3.2,0,0,0-.419-1.592Z" transform="translate(-52.646 -29.381)" fill="#fff"/>
    <path id="Path_3495" data-name="Path 3495" d="M33.281,6.588H31.736V4.824A4.827,4.827,0,0,0,26.922,0H11.286A4.819,4.819,0,0,0,6.558,3.9a4.9,4.9,0,0,0-.086.925v23.72a4.822,4.822,0,0,0,4.814,4.824H33.281a2.313,2.313,0,0,0,.257-.01,4.09,4.09,0,0,0,3.823-4.08V10.668A4.085,4.085,0,0,0,33.281,6.588Zm-4.4,21.956a1.956,1.956,0,0,1-1.954,1.964H11.286a1.959,1.959,0,0,1-1.954-1.964V25.083a33.47,33.47,0,0,1,3.995-2.669,8.752,8.752,0,0,1,3.289-1.039c2.46-.229,5.377,2.46,7.493,3.47a6.434,6.434,0,0,0,.725.3,4.689,4.689,0,0,0,3.089.124,5,5,0,0,0,.953-.419v3.7Zm0-7.493a3.293,3.293,0,0,1-.953.915,3.2,3.2,0,0,1-2.86.153c-2.422-.81-5.11-3.27-7.236-3.48-3.356-.334-5.93,1.182-8.495,2.974V4.824A1.978,1.978,0,0,1,11.286,2.86H26.922a1.959,1.959,0,0,1,1.954,1.964V21.05ZM34.5,29.278a1.218,1.218,0,0,1-.953,1.192.824.824,0,0,1-.267.038H31.317a4.8,4.8,0,0,0,.419-1.964V9.448h1.545a1.217,1.217,0,0,1,1.22,1.22Z" transform="translate(0 0)" fill="#fff"/>
  </g>
</svg>
