<svg xmlns="http://www.w3.org/2000/svg" width="24.333" height="24.333" viewBox="0 0 24.333 24.333">
  <path id="share" d="M.963,8.459,10.4,14.421l5.962,9.439a1.014,1.014,0,0,0,.857.473.989.989,0,0,0,.14-.01,1.015,1.015,0,0,0,.833-.717L24.784,1.3a1.063,1.063,0,0,0,.025-.131c0-.015.007-.029.009-.044a.99.99,0,0,0-.011-.288C24.8.818,24.8.8,24.795.781a1.024,1.024,0,0,0-.106-.275s0-.008-.005-.013A1.014,1.014,0,0,0,24.619.4C24.608.39,24.6.374,24.588.361A1.014,1.014,0,0,0,24.46.232c-.012-.01-.024-.017-.036-.026a1.012,1.012,0,0,0-.117-.078C24.288.118,24.269.11,24.251.1a1.109,1.109,0,0,0-.122-.05c-.01,0-.019-.009-.03-.012s-.019,0-.028-.005a1.089,1.089,0,0,0-.135-.026L23.882,0a1.052,1.052,0,0,0-.165,0H23.7a1.017,1.017,0,0,0-.172.035L1.217,6.63a1.014,1.014,0,0,0-.254,1.83ZM20.275,3.113,16,7.392a1.014,1.014,0,0,0,1.434,1.434l4.279-4.279L16.883,20.884,12.427,13.83l1.962-1.962a1.014,1.014,0,0,0-1.434-1.434L10.993,12.4,3.939,7.94Zm0,0" transform="translate(-0.491 0.001)" fill="#fff"/>
</svg>
