<svg xmlns="http://www.w3.org/2000/svg" width="15.226" height="18" viewBox="0 0 15.226 18">
  <g id="location" transform="translate(-39.45)">
    <path id="Path_3488" data-name="Path 3488" d="M52.446,2.23a7.613,7.613,0,0,0-13,5.384c0,4.114,3.89,7.535,5.979,9.373.29.255.541.476.741.663a1.312,1.312,0,0,0,1.786,0c.2-.187.451-.407.741-.663,2.09-1.838,5.979-5.26,5.979-9.373A7.564,7.564,0,0,0,52.446,2.23Zm-5.384,8.451a3.355,3.355,0,1,1,3.355-3.355A3.359,3.359,0,0,1,47.063,10.681Z" transform="translate(0 0)" fill="#fff"/>
    <path id="Path_3489" data-name="Path 3489" d="M263.607,7.613c0,4.114-3.89,7.535-5.979,9.373-.29.255-.541.476-.741.663a1.306,1.306,0,0,1-.893.351V10.681a3.355,3.355,0,1,0,0-6.71V0a7.613,7.613,0,0,1,7.613,7.613Z" transform="translate(-208.931)" fill="#fff"/>
  </g>
</svg>
