<svg id="Group_2" data-name="Group 2" xmlns="http://www.w3.org/2000/svg" width="88.524" height="73.873" viewBox="0 0 88.524 73.873">
  <path id="Path_4" data-name="Path 4" d="M7.281,208.6h0a3.388,3.388,0,0,1,3.381,3.381h0a3.388,3.388,0,0,1-3.381,3.381h0A3.388,3.388,0,0,1,3.9,211.981h0A3.388,3.388,0,0,1,7.281,208.6Z" transform="translate(-3.9 -175.053)" fill="#fff"/>
  <path id="Path_5" data-name="Path 5" d="M133.165,25.609h0a6.765,6.765,0,0,1,6.762,6.762V47.886a6.765,6.765,0,0,1-6.762,6.762h0V45.877a2.37,2.37,0,0,0-2.368-2.368h0a2.37,2.37,0,0,0-2.368,2.368V56.3a6.765,6.765,0,0,1-6.762,6.762h0V46.09a2.586,2.586,0,0,0-2.581-2.581h0a2.586,2.586,0,0,0-2.581,2.581V70.311a6.765,6.765,0,0,1-6.762,6.762h0V44.146a.655.655,0,0,0-.653-.653h0a.655.655,0,0,1-.653-.653V37.384a.655.655,0,0,1,.653-.653h0a.655.655,0,0,0,.653-.653V12.542a2.586,2.586,0,0,0-2.581-2.581h0a2.586,2.586,0,0,0-2.581,2.581V36.11a.655.655,0,0,0,.653.653h0a.655.655,0,0,1,.653.653v5.439a.655.655,0,0,1-.653.653h0a.655.655,0,0,0-.653.653v32.91h0a6.765,6.765,0,0,1-6.762-6.762V46.09a2.586,2.586,0,0,0-2.581-2.581h0A2.586,2.586,0,0,0,92.66,46.09V63.043h0A6.765,6.765,0,0,1,85.9,56.281V45.861a2.37,2.37,0,0,0-2.368-2.368h0a2.37,2.37,0,0,0-2.368,2.368v8.771h0A6.765,6.765,0,0,1,74.4,47.87V32.354a6.765,6.765,0,0,1,6.762-6.762h0v8.771a2.37,2.37,0,0,0,2.368,2.368h0A2.37,2.37,0,0,0,85.9,34.363V23.943a6.765,6.765,0,0,1,6.762-6.762h0V34.134a2.586,2.586,0,0,0,2.581,2.581h0a2.586,2.586,0,0,0,2.581-2.581V12.542A9.34,9.34,0,0,1,107.164,3.2h0a9.34,9.34,0,0,1,9.342,9.342V34.167a2.586,2.586,0,0,0,2.581,2.581h0a2.586,2.586,0,0,0,2.581-2.581V17.213h0a6.765,6.765,0,0,1,6.762,6.762V34.4a2.37,2.37,0,0,0,2.368,2.368h0a2.37,2.37,0,0,0,2.368-2.368V25.609Z" transform="translate(-62.885 -3.2)" fill="#fff"/>
  <path id="Path_6" data-name="Path 6" d="M511.262,211.981h0a3.388,3.388,0,0,1-3.381,3.381h0a3.388,3.388,0,0,1-3.381-3.381h0a3.388,3.388,0,0,1,3.381-3.381h0A3.377,3.377,0,0,1,511.262,211.981Z" transform="translate(-422.738 -175.053)" fill="#fff"/>
</svg>
